# xmcd CD database file
#
# Track frame offsets:
#	150
#	26427
#	60343
#	92896
#	123927
#	143896
#	173715
#	182648
#	210599
#	223719
#
# Disc length: 3277 seconds
#
# Revision: 0
# Processed by: cddbd v1.5.2PL0 Copyright (c) Steve Scherf et al.
# Submitted via: CDex 1.51
#
DISCID=870ccb0a
DTITLE=Space Lab - The Champ
DYEAR=2009
DGENRE=Jazz
TTITLE0=Playin'
TTITLE1=Hakuna
TTITLE2=Faeroe
TTITLE3=Kalahari
TTITLE4=Ecm
TTITLE5=African Trees
TTITLE6=Adagio
TTITLE7=Lullabye
TTITLE8=Wind
TTITLE9=Bartok
EXTD=YEAR: 2009
EXTT0=
EXTT1=
EXTT2=
EXTT3=
EXTT4=
EXTT5=
EXTT6=
EXTT7=
EXTT8=
EXTT9=
PLAYORDER=
